<?xml version="1.0" encoding="UTF-8" standalone="no"?>
<svg xmlns:dc="http://purl.org/dc/elements/1.1/" xmlns:cc="http://creativecommons.org/ns#" xmlns:rdf="http://www.w3.org/1999/02/22-rdf-syntax-ns#" xmlns:svg="http://www.w3.org/2000/svg" xmlns="http://www.w3.org/2000/svg" xmlns:xlink="http://www.w3.org/1999/xlink" xmlns:sodipodi="http://sodipodi.sourceforge.net/DTD/sodipodi-0.dtd" xmlns:inkscape="http://www.inkscape.org/namespaces/inkscape" version="1.1" id="Layer_1" x="0px" y="0px" viewBox="0 0 80 80" xml:space="preserve" inkscape:version="0.91 r13725" sodipodi:docname="16 approve verify accept  payment Transaction bank transfer activity.svg" width="80" height="80"><defs id="defs17"><linearGradient inkscape:collect="always" xlink:href="#linearGradient3858" id="linearGradient3564" gradientUnits="userSpaceOnUse" gradientTransform="matrix(2.5630898,0,0,2.5630898,-2211.614,-1321.6993)" x1="868.25281" y1="521.354" x2="937.65552" y2="588.73639"/><linearGradient id="linearGradient3858"><stop style="stop-color:#24f3d2;stop-opacity:1" offset="0" id="stop3860"/><stop id="stop3870" offset="0.39430937" style="stop-color:#0674f0;stop-opacity:1"/><stop id="stop3868" offset="0.5074293" style="stop-color:#6961b5;stop-opacity:1"/><stop id="stop3866" offset="0.81270486" style="stop-color:#f34660;stop-opacity:1"/><stop style="stop-color:#ee078d;stop-opacity:1" offset="1" id="stop3862"/></linearGradient></defs><sodipodi:namedview pagecolor="#ffffff" bordercolor="#666666" borderopacity="1" objecttolerance="10" gridtolerance="10" guidetolerance="10" inkscape:pageopacity="0" inkscape:pageshadow="2" inkscape:window-width="1366" inkscape:window-height="705" id="namedview15" showgrid="true" inkscape:zoom="1.7383042" inkscape:cx="-128.43514" inkscape:cy="-13.710764" inkscape:window-x="-8" inkscape:window-y="-8" inkscape:window-maximized="1" inkscape:current-layer="Layer_1"><inkscape:grid type="xygrid" id="grid3352"/></sodipodi:namedview><style type="text/css" id="style3">
	.st0{fill:#010101;}
	.st1{fill:#060707;}
	.st2{fill:none;stroke:#010101;stroke-width:2;stroke-linecap:round;stroke-linejoin:round;stroke-miterlimit:10;}
	.st3{fill:#2BB673;}
</style><g id="g3359"><rect style="fill:url(#linearGradient3564);fill-opacity:1;stroke:none" id="rect3516" width="80" height="80" x="0" y="0" rx="16.906679" ry="16.906679"/><path inkscape:connector-curvature="0" id="path7" d="m 30,20 c -0.6,0 -1,0.4 -1,1 l 0,5 22,0 0,-5 c 0,-0.6 -0.4,-1 -1,-1 l -20,0 z m 8,2 4,0 c 0.6,0 1,0.4 1,1 0,0.6 -0.4,1 -1,1 l -4,0 c -0.6,0 -1,-0.4 -1,-1 0,-0.6 0.4,-1 1,-1 z m -9,6 0,24 22,0 0,-24 -22,0 z m 11,4 c 4.4,0 8,3.6 8,8 0,4.4 -3.6,8 -8,8 -4.4,0 -8,-3.6 -8,-8 0,-4.4 3.6,-8 8,-8 z m 0,2 c -3.3,0 -6,2.7 -6,6 0,3.3 2.7,6 6,6 3.3,0 6,-2.7 6,-6 0,-3.3 -2.7,-6 -6,-6 z m 3,3 c 0.25,0 0.499219,0.100781 0.699219,0.300781 0.4,0.4 0.4,0.998438 0,1.398438 l -4,4 C 39.499219,42.899219 39.3,43 39,43 38.7,43 38.500781,42.899219 38.300781,42.699219 l -2,-2 c -0.4,-0.4 -0.4,-0.998438 0,-1.398438 0.4,-0.4 0.998438,-0.4 1.398438,0 L 39,40.599609 42.300781,37.300781 C 42.500781,37.100781 42.75,37 43,37 Z m -14,17 0,5 c 0,0.6 0.4,1 1,1 l 20,0 c 0.6,0 1,-0.4 1,-1 l 0,-5 -22,0 z m 11,1.5 c 0.8,0 1.5,0.7 1.5,1.5 0,0.8 -0.7,1.5 -1.5,1.5 -0.8,0 -1.5,-0.7 -1.5,-1.5 0,-0.8 0.7,-1.5 1.5,-1.5 z" style="fill:#ffffff"/></g>
	<metadata>
		<rdf:RDF xmlns:rdf="http://www.w3.org/1999/02/22-rdf-syntax-ns#" xmlns:rdfs="http://www.w3.org/2000/01/rdf-schema#" xmlns:dc="http://purl.org/dc/elements/1.1/">
			<rdf:Description about="https://iconscout.com/legal#licenses" dc:title="16 approve verify accept  payment Transaction bank transfer activity" dc:description="16 approve verify accept  payment Transaction bank transfer activity" dc:publisher="Iconscout" dc:date="2017-03-08" dc:format="image/svg+xml" dc:language="en">
				<dc:creator>
					<rdf:Bag>
						<rdf:li>Jemis Mali</rdf:li>
					</rdf:Bag>
				</dc:creator>
			</rdf:Description>
		</rdf:RDF>
    </metadata></svg>
