<svg xmlns="http://www.w3.org/2000/svg" xmlns:xlink="http://www.w3.org/1999/xlink" width="28" height="28" viewBox="0 0 28 28"><defs><linearGradient id="b" x1="992.183" x2="1019.298" y1="516.081" y2="545.959" gradientTransform="translate(-888.245 561.767) scale(.89708)" gradientUnits="userSpaceOnUse" xlink:href="#a"/><linearGradient id="a"><stop offset="0" stop-color="#ff1679"/><stop offset="1" stop-color="#ff770b"/></linearGradient></defs><g transform="translate(0 -1024.362)"><rect width="28" height="28" y="1024.362" fill="url(#b)" rx="5.917" ry="5.917"/><path fill="#fff" d="m 13.5,1032.3592 c -3.031658,0 -5.5,2.4682 -5.5,5.5 0.00254,1.6213 0.7693393,3.1131 2,4.1524 l 0,1.8457 c 2.8e-5,0.2761 0.223869,0.4999 0.5,0.5 l 1.503906,0 0,-0.2325 -0.0039,-1.9941 c -0.0032,-0.2754 0.216816,-0.5015 0.492188,-0.5059 0.281488,0 0.511117,0.2244 0.507812,0.5059 l -0.0039,1.9941 0,0.2364 1.009766,0 0,-0.2364 -0.0059,-1.9941 c -0.0032,-0.2754 0.216816,-0.5015 0.492188,-0.5059 0.281488,0 0.511117,0.2244 0.507812,0.5059 l -0.0098,1.9941 0,0.2305 1.50977,0.01 c 0.276131,0 0.499972,-0.2239 0.5,-0.5 l 0,-1.8457 c 1.230661,-1.0393 1.997504,-2.531 2,-4.1523 0,-3.0318 -2.468342,-5.5 -5.5,-5.5 z m -2,3.5078 c 0.552285,0 1,0.4477 1,1 0,0.5523 -0.447715,1 -1,1 -0.552285,0 -1,-0.4477 -1,-1 0,-0.5523 0.447715,-1 1,-1 z m 4,0 c 0.552285,0 1,0.4477 1,1 0,0.5523 -0.447715,1 -1,1 -0.552285,0 -1,-0.4477 -1,-1 0,-0.5523 0.447715,-1 1,-1 z m -2,2.9922 1.5,1.5 -3,0 1.5,-1.5 z"/></g></svg>